<svg xmlns="http://www.w3.org/2000/svg" viewBox="0 0 1280 720" width="1280" height="720">
  <rect width="1280" height="720" fill="#F8FAFC" />
  
  <polygon points="0,0 250,0 0,250" fill="#1E3A8A" />
  <polygon points="0,250 250,0 270,0 0,270" fill="#10B981" />
  
  <polygon points="1280,720 1030,720 1280,470" fill="#1E3A8A" />
  <polygon points="1280,470 1030,720 1010,720 1280,450" fill="#10B981" />

  <text x="120" y="140" font-family="'Arial Black', SimHei, sans-serif" font-size="48" font-weight="900" fill="#1E3A8A">
    ¿A qué nos enfrentamos?
  </text>
  <rect x="120" y="170" width="100" height="6" fill="#10B981" />

  
  <path fill="#FFFFFF" stroke="#E2E8F0" stroke-width="2" d="M132,260 H428 A12,12 0 0 1 440,272 V588 A12,12 0 0 1 428,600 H132 A12,12 0 0 1 120,588 V272 A12,12 0 0 1 132,260 Z" />
  <path fill="#1E3A8A" d="M132,260 H428 A12,6 0 0 1 440,266 V266 A12,6 0 0 1 428,272 H132 A12,6 0 0 1 120,266 V266 A12,6 0 0 1 132,260 Z" />
  <path d="M260 300 l20 40 l-40 0 Z" fill="#10B981" /> 
  <text x="280" y="380" font-family="'Segoe UI', 'Microsoft YaHei', sans-serif" font-size="28" font-weight="bold" fill="#1E3A8A" text-anchor="middle">
    Consumo Energético
  </text>
  <text font-size="22" text-anchor="middle" font-family="'Segoe UI', 'Microsoft YaHei', sans-serif" fill="#475569" x="280" y="440">Refrigeración y</text><text font-size="22" text-anchor="middle" font-family="'Segoe UI', 'Microsoft YaHei', sans-serif" fill="#475569" x="280" y="470">alimentación continua</text><text font-size="22" text-anchor="middle" font-family="'Segoe UI', 'Microsoft YaHei', sans-serif" fill="#475569" x="280" y="500">de centros de datos y</text><text font-size="22" text-anchor="middle" font-family="'Segoe UI', 'Microsoft YaHei', sans-serif" fill="#475569" x="280" y="530">redes globales.</text><path fill="#FFFFFF" stroke="#E2E8F0" stroke-width="2" d="M492,260 H788 A12,12 0 0 1 800,272 V588 A12,12 0 0 1 788,600 H492 A12,12 0 0 1 480,588 V272 A12,12 0 0 1 492,260 Z" />
  <path fill="#10B981" d="M492,260 H788 A12,6 0 0 1 800,266 V266 A12,6 0 0 1 788,272 H492 A12,6 0 0 1 480,266 V266 A12,6 0 0 1 492,260 Z" />
  <circle cx="640" cy="320" r="20" fill="#1E3A8A" /> 
  <text x="640" y="380" font-family="'Segoe UI', 'Microsoft YaHei', sans-serif" font-size="28" font-weight="bold" fill="#1E3A8A" text-anchor="middle">
    Residuos Electrónicos
  </text>
  <text font-size="22" text-anchor="middle" font-family="'Segoe UI', 'Microsoft YaHei', sans-serif" fill="#475569" x="640" y="440">Hardware desechado</text><text font-size="22" text-anchor="middle" font-family="'Segoe UI', 'Microsoft YaHei', sans-serif" fill="#475569" x="640" y="470">velozmente por</text><text font-size="22" text-anchor="middle" font-family="'Segoe UI', 'Microsoft YaHei', sans-serif" fill="#475569" x="640" y="500">obsolescencia</text><text font-size="22" text-anchor="middle" font-family="'Segoe UI', 'Microsoft YaHei', sans-serif" fill="#475569" x="640" y="530">programada.</text><path fill="#FFFFFF" stroke="#E2E8F0" stroke-width="2" d="M852,260 H1148 A12,12 0 0 1 1160,272 V588 A12,12 0 0 1 1148,600 H852 A12,12 0 0 1 840,588 V272 A12,12 0 0 1 852,260 Z" />
  <path fill="#1E3A8A" d="M852,260 H1148 A12,6 0 0 1 1160,266 V266 A12,6 0 0 1 1148,272 H852 A12,6 0 0 1 840,266 V266 A12,6 0 0 1 852,260 Z" />
  <rect x="980" y="300" width="40" height="40" fill="#10B981" /> 
  <text x="1000" y="380" font-family="'Segoe UI', 'Microsoft YaHei', sans-serif" font-size="28" font-weight="bold" fill="#1E3A8A" text-anchor="middle">
    Huella de Carbono
  </text>
  <text font-size="22" text-anchor="middle" font-family="'Segoe UI', 'Microsoft YaHei', sans-serif" fill="#475569" x="1000" y="440">Gases emitidos por</text><text font-size="22" text-anchor="middle" font-family="'Segoe UI', 'Microsoft YaHei', sans-serif" fill="#475569" x="1000" y="470">el tráfico constante</text><text font-size="22" text-anchor="middle" font-family="'Segoe UI', 'Microsoft YaHei', sans-serif" fill="#475569" x="1000" y="500">de datos de millones</text><text font-size="22" text-anchor="middle" font-family="'Segoe UI', 'Microsoft YaHei', sans-serif" fill="#475569" x="1000" y="530">de usuarios.</text></svg>