<svg xmlns="http://www.w3.org/2000/svg" viewBox="0 0 1280 720" width="1280" height="720">
  <rect width="1280" height="720" fill="#F8FAFC" />
  
  <polygon points="0,0 250,0 0,250" fill="#1E3A8A" />
  <polygon points="0,250 250,0 270,0 0,270" fill="#10B981" />
  
  <polygon points="1280,720 1030,720 1280,470" fill="#1E3A8A" />
  <polygon points="1280,470 1030,720 1010,720 1280,450" fill="#10B981" />

  <text x="120" y="140" font-family="'Arial Black', SimHei, sans-serif" font-size="48" font-weight="900" fill="#1E3A8A">
    Green Coding: Nuestra Responsabilidad
  </text>
  <rect x="120" y="170" width="100" height="6" fill="#10B981" />

  <text x="120" y="240" font-family="'Segoe UI', 'Microsoft YaHei', sans-serif" font-size="28" font-weight="600" fill="#334155">
    Significa escribir código para que consuma la menor energía posible.
  </text>

  
  <path fill="#FFFFFF" stroke="#E2E8F0" stroke-width="2" d="M132,300 H428 A12,12 0 0 1 440,312 V568 A12,12 0 0 1 428,580 H132 A12,12 0 0 1 120,568 V312 A12,12 0 0 1 132,300 Z" />
  <path fill="#10B981" d="M132,300 H428 A12,6 0 0 1 440,306 V306 A12,6 0 0 1 428,312 H132 A12,6 0 0 1 120,306 V306 A12,6 0 0 1 132,300 Z" />
  <text x="280" y="380" font-family="'Segoe UI', 'Microsoft YaHei', sans-serif" font-size="28" font-weight="bold" fill="#1E3A8A" text-anchor="middle">
    Algoritmos Eficientes
  </text>
  <text font-size="22" text-anchor="middle" font-family="'Segoe UI', 'Microsoft YaHei', sans-serif" fill="#475569" x="280" y="440">Diseñar lógica que</text><text font-size="22" text-anchor="middle" font-family="'Segoe UI', 'Microsoft YaHei', sans-serif" fill="#475569" x="280" y="470">reduzca los ciclos de</text><text font-size="22" text-anchor="middle" font-family="'Segoe UI', 'Microsoft YaHei', sans-serif" fill="#475569" x="280" y="500">procesamiento (CPU).</text><path fill="#FFFFFF" stroke="#E2E8F0" stroke-width="2" d="M492,300 H788 A12,12 0 0 1 800,312 V568 A12,12 0 0 1 788,580 H492 A12,12 0 0 1 480,568 V312 A12,12 0 0 1 492,300 Z" />
  <path fill="#10B981" d="M492,300 H788 A12,6 0 0 1 800,306 V306 A12,6 0 0 1 788,312 H492 A12,6 0 0 1 480,306 V306 A12,6 0 0 1 492,300 Z" />
  <text x="640" y="380" font-family="'Segoe UI', 'Microsoft YaHei', sans-serif" font-size="28" font-weight="bold" fill="#1E3A8A" text-anchor="middle">
    Optimización RAM
  </text>
  <text font-size="22" text-anchor="middle" font-family="'Segoe UI', 'Microsoft YaHei', sans-serif" fill="#475569" x="640" y="440">Minimizar uso de memoria,</text><text font-size="22" text-anchor="middle" font-family="'Segoe UI', 'Microsoft YaHei', sans-serif" fill="#475569" x="640" y="470">evitando sobrecargar</text><text font-size="22" text-anchor="middle" font-family="'Segoe UI', 'Microsoft YaHei', sans-serif" fill="#475569" x="640" y="500">dispositivos móviles.</text><path fill="#FFFFFF" stroke="#E2E8F0" stroke-width="2" d="M852,300 H1148 A12,12 0 0 1 1160,312 V568 A12,12 0 0 1 1148,580 H852 A12,12 0 0 1 840,568 V312 A12,12 0 0 1 852,300 Z" />
  <path fill="#10B981" d="M852,300 H1148 A12,6 0 0 1 1160,306 V306 A12,6 0 0 1 1148,312 H852 A12,6 0 0 1 840,306 V306 A12,6 0 0 1 852,300 Z" />
  <text x="1000" y="380" font-family="'Segoe UI', 'Microsoft YaHei', sans-serif" font-size="28" font-weight="bold" fill="#1E3A8A" text-anchor="middle">
    Archivos Ligeros
  </text>
  <text font-size="22" text-anchor="middle" font-family="'Segoe UI', 'Microsoft YaHei', sans-serif" fill="#475569" x="1000" y="440">Reducción del peso de</text><text font-size="22" text-anchor="middle" font-family="'Segoe UI', 'Microsoft YaHei', sans-serif" fill="#475569" x="1000" y="470">recursos web (imágenes,</text><text font-size="22" text-anchor="middle" font-family="'Segoe UI', 'Microsoft YaHei', sans-serif" fill="#475569" x="1000" y="500">scripts) para ahorrar datos.</text></svg>